<svg width="24" height="24" viewBox="0 0 24 24" fill="none" xmlns="http://www.w3.org/2000/svg">
<path d="M12 2C6.48 2 2 6.48 2 12C2 17.52 6.48 22 12 22C17.52 22 22 17.52 22 12C22 6.48 17.52 2 12 2ZM12 20C7.59 20 4 16.41 4 12C4 7.59 7.59 4 12 4C16.41 4 20 7.59 20 12C20 16.41 16.41 20 12 20Z" fill="url(#paint0_linear_1_100)"/>
<path d="M12 11.5C11.17 11.5 10.5 10.83 10.5 10C10.5 9.17 11.17 8.5 12 8.5C12.83 8.5 13.5 9.17 13.5 10C13.5 10.83 12.83 11.5 12 11.5Z" fill="url(#paint1_linear_1_100)"/>
<path d="M15 13.5C15 12.67 14.33 12 13.5 12C12.67 12 12 12.67 12 13.5C12 14.33 12.67 15 13.5 15C14.33 15 15 14.33 15 13.5Z" fill="url(#paint2_linear_1_100)"/>
<path d="M9 13.5C9 12.67 8.33 12 7.5 12C6.67 12 6 12.67 6 13.5C6 14.33 6.67 15 7.5 15C8.33 15 9 14.33 9 13.5Z" fill="url(#paint3_linear_1_100)"/>
<path d="M12 16.5C11.17 16.5 10.5 15.83 10.5 15C10.5 14.17 11.17 13.5 12 13.5C12.83 13.5 13.5 14.17 13.5 15C13.5 15.83 12.83 16.5 12 16.5Z" fill="url(#paint4_linear_1_100)"/>
<path d="M18 13.5C18 12.67 17.33 12 16.5 12C15.67 12 15 12.67 15 13.5C15 14.33 15.67 15 16.5 15C17.33 15 18 14.33 18 13.5Z" fill="url(#paint5_linear_1_100)"/>
<path d="M6 10.5C6 9.67 5.33 9 4.5 9C3.67 9 3 9.67 3 10.5C3 11.33 3.67 12 4.5 12C5.33 12 6 11.33 6 10.5Z" fill="url(#paint6_linear_1_100)"/>
<path d="M21 10.5C21 9.67 20.33 9 19.5 9C18.67 9 18 9.67 18 10.5C18 11.33 18.67 12 19.5 12C20.33 12 21 11.33 21 10.5Z" fill="url(#paint7_linear_1_100)"/>
<defs>
<linearGradient id="paint0_linear_1_100" x1="12" y1="2" x2="12" y2="22" gradientUnits="userSpaceOnUse">
<stop stop-color="#007AFF"/>
<stop offset="1" stop-color="#00C6FF"/>
</linearGradient>
<linearGradient id="paint1_linear_1_100" x1="12" y1="8.5" x2="12" y2="11.5" gradientUnits="userSpaceOnUse">
<stop stop-color="#007AFF"/>
<stop offset="1" stop-color="#00C6FF"/>
</linearGradient>
<linearGradient id="paint2_linear_1_100" x1="13.5" y1="12" x2="13.5" y2="15" gradientUnits="userSpaceOnUse">
<stop stop-color="#007AFF"/>
<stop offset="1" stop-color="#00C6FF"/>
</linearGradient>
<linearGradient id="paint3_linear_1_100" x1="7.5" y1="12" x2="7.5" y2="15" gradientUnits="userSpaceOnUse">
<stop stop-color="#007AFF"/>
<stop offset="1" stop-color="#00C6FF"/>
</linearGradient>
<linearGradient id="paint4_linear_1_100" x1="12" y1="13.5" x2="12" y2="16.5" gradientUnits="userSpaceOnUse">
<stop stop-color="#007AFF"/>
<stop offset="1" stop-color="#00C6FF"/>
</linearGradient>
<linearGradient id="paint5_linear_1_100" x1="16.5" y1="12" x2="16.5" y2="15" gradientUnits="userSpaceOnUse">
<stop stop-color="#007AFF"/>
<stop offset="1" stop-color="#00C6FF"/>
</linearGradient>
<linearGradient id="paint6_linear_1_100" x1="4.5" y1="9" x2="4.5" y2="12" gradientUnits="userSpaceOnUse">
<stop stop-color="#007AFF"/>
<stop offset="1" stop-color="#00C6FF"/>
</linearGradient>
<linearGradient id="paint7_linear_1_100" x1="19.5" y1="9" x2="19.5" y2="12" gradientUnits="userSpaceOnUse">
<stop stop-color="#007AFF"/>
<stop offset="1" stop-color="#00C6FF"/>
</linearGradient>
</defs>
</svg>