<svg xmlns="http://www.w3.org/2000/svg" viewBox="0 0 1440 900" width="1440" height="900">
  <defs>
    <!-- Richer dawn sky gradient -->
    <linearGradient id="skyGrad" x1="0" y1="0" x2="0" y2="1">
      <stop offset="0%" stop-color="#060F12"/>
      <stop offset="12%" stop-color="#0D1F1A"/>
      <stop offset="28%" stop-color="#1A3A22"/>
      <stop offset="42%" stop-color="#2E5C2A"/>
      <stop offset="55%" stop-color="#6B7A20"/>
      <stop offset="65%" stop-color="#C47A00"/>
      <stop offset="75%" stop-color="#E85A0A"/>
      <stop offset="85%" stop-color="#F28020"/>
      <stop offset="100%" stop-color="#F5A030"/>
    </linearGradient>

    <radialGradient id="sunBurst" cx="50%" cy="60%" r="50%">
      <stop offset="0%" stop-color="#FFE060" stop-opacity="0.6"/>
      <stop offset="20%" stop-color="#FFB800" stop-opacity="0.35"/>
      <stop offset="45%" stop-color="#FF6600" stop-opacity="0.18"/>
      <stop offset="70%" stop-color="#FF3300" stop-opacity="0.08"/>
      <stop offset="100%" stop-color="transparent"/>
    </radialGradient>

    <radialGradient id="warmLeft" cx="12%" cy="72%" r="38%">
      <stop offset="0%" stop-color="#FFB300" stop-opacity="0.25"/>
      <stop offset="50%" stop-color="#FF6600" stop-opacity="0.1"/>
      <stop offset="100%" stop-color="transparent"/>
    </radialGradient>

    <radialGradient id="warmRight" cx="88%" cy="72%" r="35%">
      <stop offset="0%" stop-color="#FFA000" stop-opacity="0.2"/>
      <stop offset="50%" stop-color="#FF5500" stop-opacity="0.08"/>
      <stop offset="100%" stop-color="transparent"/>
    </radialGradient>

    <radialGradient id="greenGlow" cx="75%" cy="38%" r="32%">
      <stop offset="0%" stop-color="#7FD700" stop-opacity="0.15"/>
      <stop offset="60%" stop-color="#4CAF50" stop-opacity="0.05"/>
      <stop offset="100%" stop-color="transparent"/>
    </radialGradient>

    <radialGradient id="zenithGlow" cx="50%" cy="0%" r="60%">
      <stop offset="0%" stop-color="#0A2A18" stop-opacity="0.3"/>
      <stop offset="100%" stop-color="transparent"/>
    </radialGradient>

    <filter id="nodeGlow">
      <feGaussianBlur stdDeviation="3" result="blur"/>
      <feMerge><feMergeNode in="blur"/><feMergeNode in="SourceGraphic"/></feMerge>
    </filter>

    <filter id="strongGlow">
      <feGaussianBlur stdDeviation="6" result="blur"/>
      <feMerge><feMergeNode in="blur"/><feMergeNode in="SourceGraphic"/></feMerge>
    </filter>

    <filter id="planeGlow">
      <feGaussianBlur stdDeviation="3" result="blur"/>
      <feMerge><feMergeNode in="blur"/><feMergeNode in="SourceGraphic"/></feMerge>
    </filter>

    <filter id="softBlur">
      <feGaussianBlur stdDeviation="2"/>
    </filter>

    <filter id="noise">
      <feTurbulence type="fractalNoise" baseFrequency="0.7" numOctaves="4" stitchTiles="stitch" result="noise"/>
      <feColorMatrix type="saturate" values="0" in="noise" result="gray"/>
      <feBlend in="SourceGraphic" in2="gray" mode="overlay"/>
    </filter>

    <radialGradient id="vignette" cx="50%" cy="48%" r="72%">
      <stop offset="0%" stop-color="transparent"/>
      <stop offset="70%" stop-color="#000" stop-opacity="0.05"/>
      <stop offset="100%" stop-color="#000" stop-opacity="0.45"/>
    </radialGradient>

    <clipPath id="horizonClip">
      <rect x="0" y="540" width="1440" height="360"/>
    </clipPath>

    <clipPath id="belowSun">
      <rect x="0" y="542" width="1440" height="358"/>
    </clipPath>

    <radialGradient id="sunCore" cx="50%" cy="50%" r="50%">
      <stop offset="0%" stop-color="#FFFDE0"/>
      <stop offset="25%" stop-color="#FFF5A0"/>
      <stop offset="55%" stop-color="#FFD700"/>
      <stop offset="85%" stop-color="#FF9500" stop-opacity="0.7"/>
      <stop offset="100%" stop-color="#FF6600" stop-opacity="0.3"/>
    </radialGradient>

    <linearGradient id="cloudGrad1" x1="0" y1="0" x2="1" y2="1">
      <stop offset="0%" stop-color="#FFF5C8" stop-opacity="0.8"/>
      <stop offset="100%" stop-color="#FFB347" stop-opacity="0.5"/>
    </linearGradient>

    <linearGradient id="cloudGrad2" x1="0" y1="0" x2="0.8" y2="1">
      <stop offset="0%" stop-color="#FFEDAA" stop-opacity="0.7"/>
      <stop offset="100%" stop-color="#FF9040" stop-opacity="0.4"/>
    </linearGradient>

    <linearGradient id="waterReflect" x1="0" y1="0" x2="0" y2="1">
      <stop offset="0%" stop-color="#FFD050" stop-opacity="0.35"/>
      <stop offset="40%" stop-color="#E87020" stop-opacity="0.2"/>
      <stop offset="100%" stop-color="#C05010" stop-opacity="0.08"/>
    </linearGradient>

    <!-- Lens flare gradient -->
    <radialGradient id="lensFlare" cx="50%" cy="50%" r="50%">
      <stop offset="0%" stop-color="#FFFFFF" stop-opacity="0.9"/>
      <stop offset="30%" stop-color="#FFE880" stop-opacity="0.4"/>
      <stop offset="100%" stop-color="transparent"/>
    </radialGradient>

    <!-- Path trail gradient -->
    <linearGradient id="trailGrad" x1="0" y1="0" x2="1" y2="0">
      <stop offset="0%" stop-color="#FF6600" stop-opacity="0.6"/>
      <stop offset="50%" stop-color="#FFD700" stop-opacity="0.8"/>
      <stop offset="100%" stop-color="#FF8C00" stop-opacity="0.6"/>
    </linearGradient>
  </defs>

  <!-- ===== BASE SKY ===== -->
  <rect width="1440" height="900" fill="url(#skyGrad)"/>

  <!-- Atmospheric glows -->
  <rect width="1440" height="900" fill="url(#sunBurst)"/>
  <rect width="1440" height="900" fill="url(#warmLeft)"/>
  <rect width="1440" height="900" fill="url(#warmRight)"/>
  <rect width="1440" height="900" fill="url(#greenGlow)"/>
  <rect width="1440" height="900" fill="url(#zenithGlow)"/>

  <!-- ===== STARS ===== -->
  <g opacity="0.8">
    <circle cx="95" cy="35" r="1.4" fill="white" opacity="0.9">
      <animate attributeName="opacity" values="0.9;0.5;0.9" dur="3.2s" repeatCount="indefinite"/>
    </circle>
    <circle cx="275" cy="18" r="1.1" fill="white" opacity="0.85"/>
    <circle cx="445" cy="50" r="1.6" fill="#FFFFCC" opacity="0.9">
      <animate attributeName="opacity" values="0.9;0.6;0.9" dur="4.1s" repeatCount="indefinite"/>
    </circle>
    <circle cx="635" cy="22" r="1.2" fill="#FFFF99" opacity="0.8"/>
    <circle cx="815" cy="45" r="1.4" fill="white" opacity="0.85">
      <animate attributeName="opacity" values="0.85;0.4;0.85" dur="3.7s" repeatCount="indefinite"/>
    </circle>
    <circle cx="998" cy="15" r="1.3" fill="white" opacity="0.8"/>
    <circle cx="1175" cy="42" r="1.5" fill="#FFFF99" opacity="0.85"/>
    <circle cx="1375" cy="28" r="1.2" fill="white" opacity="0.75">
      <animate attributeName="opacity" values="0.75;0.35;0.75" dur="5s" repeatCount="indefinite"/>
    </circle>
    <circle cx="168" cy="90" r="1" fill="white" opacity="0.65"/>
    <circle cx="375" cy="105" r="1.1" fill="#FFE680" opacity="0.7"/>
    <circle cx="585" cy="85" r="0.9" fill="white" opacity="0.6"/>
    <circle cx="755" cy="110" r="1.2" fill="white" opacity="0.7">
      <animate attributeName="opacity" values="0.7;0.3;0.7" dur="4.5s" repeatCount="indefinite"/>
    </circle>
    <circle cx="935" cy="80" r="1" fill="#CCFF99" opacity="0.65"/>
    <circle cx="1115" cy="95" r="1.1" fill="white" opacity="0.65"/>
    <circle cx="1295" cy="75" r="0.9" fill="white" opacity="0.6"/>
    <circle cx="55" cy="145" r="0.8" fill="white" opacity="0.5"/>
    <circle cx="315" cy="160" r="0.9" fill="#FFE680" opacity="0.55"/>
    <circle cx="515" cy="170" r="0.8" fill="white" opacity="0.5"/>
    <circle cx="695" cy="150" r="1" fill="white" opacity="0.55"/>
    <circle cx="1045" cy="140" r="0.8" fill="#CCFF99" opacity="0.55"/>
    <circle cx="1235" cy="165" r="0.9" fill="white" opacity="0.5"/>
    <circle cx="1415" cy="125" r="0.8" fill="white" opacity="0.55"/>
    <circle cx="42" cy="68" r="0.7" fill="white" opacity="0.5"/>
    <circle cx="530" cy="30" r="0.8" fill="#FFE4B5" opacity="0.6"/>
    <circle cx="1070" cy="58" r="0.7" fill="white" opacity="0.5"/>
  </g>

  <!-- ===== SUN ===== -->
  <!-- Outer halos -->
  <circle cx="720" cy="540" r="160" fill="#FF6600" fill-opacity="0.04"/>
  <circle cx="720" cy="540" r="120" fill="#FF8C00" fill-opacity="0.07"/>
  <circle cx="720" cy="540" r="85" fill="#FFB300" fill-opacity="0.14"/>
  <!-- Sun disk -->
  <circle cx="720" cy="540" r="62" fill="url(#sunCore)" opacity="0.9"/>
  <!-- Hot center -->
  <circle cx="720" cy="535" r="25" fill="#FFFDE8" fill-opacity="0.4"/>

  <!-- Sun rays (more refined) -->
  <g opacity="0.3" transform="translate(720,540)">
    <line x1="0" y1="-75" x2="0" y2="-160" stroke="#FFE600" stroke-width="2.5" stroke-linecap="round"/>
    <line x1="53" y1="-53" x2="112" y2="-112" stroke="#FFE600" stroke-width="1.8" stroke-linecap="round"/>
    <line x1="75" y1="0" x2="160" y2="0" stroke="#FFE600" stroke-width="1.8" stroke-linecap="round"/>
    <line x1="-53" y1="-53" x2="-112" y2="-112" stroke="#FFE600" stroke-width="1.8" stroke-linecap="round"/>
    <line x1="-75" y1="0" x2="-160" y2="0" stroke="#FFE600" stroke-width="1.8" stroke-linecap="round"/>
    <!-- Minor rays -->
    <line x1="35" y1="-68" x2="65" y2="-135" stroke="#FFD700" stroke-width="1" opacity="0.5" stroke-linecap="round"/>
    <line x1="68" y1="-35" x2="135" y2="-65" stroke="#FFD700" stroke-width="1" opacity="0.5" stroke-linecap="round"/>
    <line x1="-35" y1="-68" x2="-65" y2="-135" stroke="#FFD700" stroke-width="1" opacity="0.5" stroke-linecap="round"/>
    <line x1="-68" y1="-35" x2="-135" y2="-65" stroke="#FFD700" stroke-width="1" opacity="0.5" stroke-linecap="round"/>
    <line x1="20" y1="-73" x2="35" y2="-145" stroke="#FFE88A" stroke-width="0.7" opacity="0.35" stroke-linecap="round"/>
    <line x1="-20" y1="-73" x2="-35" y2="-145" stroke="#FFE88A" stroke-width="0.7" opacity="0.35" stroke-linecap="round"/>
  </g>

  <!-- Lens flare spots -->
  <circle cx="680" cy="480" r="8" fill="url(#lensFlare)" opacity="0.15"/>
  <circle cx="650" cy="420" r="5" fill="url(#lensFlare)" opacity="0.1"/>
  <circle cx="770" cy="460" r="6" fill="url(#lensFlare)" opacity="0.12"/>

  <!-- Horizon glow bands -->
  <ellipse cx="720" cy="542" rx="800" ry="55" fill="#FFB300" fill-opacity="0.2"/>
  <ellipse cx="720" cy="542" rx="600" ry="30" fill="#FFD700" fill-opacity="0.15"/>
  <ellipse cx="720" cy="542" rx="950" ry="22" fill="#FF8C00" fill-opacity="0.12"/>

  <!-- ===== CLOUDS ===== -->
  <!-- Left cloud cluster -->
  <g opacity="0.6">
    <ellipse cx="200" cy="345" rx="130" ry="32" fill="url(#cloudGrad1)"/>
    <ellipse cx="160" cy="335" rx="75" ry="25" fill="#FFF5C0" fill-opacity="0.55"/>
    <ellipse cx="245" cy="330" rx="85" ry="24" fill="#FFE08A" fill-opacity="0.5"/>
    <ellipse cx="130" cy="348" rx="50" ry="18" fill="#FFD090" fill-opacity="0.35"/>
    <ellipse cx="280" cy="350" rx="55" ry="16" fill="#FFD090" fill-opacity="0.3"/>
  </g>

  <!-- Right cloud cluster -->
  <g opacity="0.55">
    <ellipse cx="1210" cy="315" rx="155" ry="36" fill="url(#cloudGrad2)"/>
    <ellipse cx="1165" cy="303" rx="85" ry="28" fill="#FFF5C0" fill-opacity="0.5"/>
    <ellipse cx="1260" cy="306" rx="95" ry="26" fill="#FFE08A" fill-opacity="0.45"/>
    <ellipse cx="1310" cy="320" rx="60" ry="18" fill="#FFD090" fill-opacity="0.3"/>
    <ellipse cx="1120" cy="318" rx="45" ry="15" fill="#FFD090" fill-opacity="0.3"/>
  </g>

  <!-- Upper wispy clouds -->
  <g opacity="0.25">
    <ellipse cx="500" cy="230" rx="120" ry="10" fill="#FFE8AA"/>
    <ellipse cx="950" cy="210" rx="100" ry="8" fill="#FFE8AA"/>
    <ellipse cx="400" cy="260" rx="80" ry="6" fill="#FFD888"/>
  </g>

  <!-- Center cloud (backlit) -->
  <g opacity="0.25">
    <ellipse cx="720" cy="432" rx="200" ry="40" fill="#FF9500"/>
    <ellipse cx="720" cy="422" rx="130" ry="25" fill="#FFCC00" fill-opacity="0.8"/>
    <ellipse cx="660" cy="438" rx="80" ry="18" fill="#FF8000" fill-opacity="0.5"/>
    <ellipse cx="790" cy="440" rx="90" ry="16" fill="#FF8000" fill-opacity="0.45"/>
  </g>

  <!-- ===== MOUNTAINS ===== -->
  <g>
    <!-- Far mountains left (deepest) -->
    <polygon points="0,542 0,365 60,420 130,340 200,380 280,310 370,400 440,490 0,542" fill="#0E2A08" opacity="0.95"/>
    <!-- Far mountains right -->
    <polygon points="1440,542 1440,350 1380,410 1310,330 1240,370 1160,305 1070,395 1000,490 1440,542" fill="#0E2A08" opacity="0.95"/>

    <!-- Mid mountains left -->
    <polygon points="0,542 80,480 170,420 260,445 370,475 480,520 0,542" fill="#1A4010" opacity="0.9"/>
    <!-- Mid mountains right -->
    <polygon points="1440,542 1360,478 1270,418 1180,440 1070,472 960,518 1440,542" fill="#1A4010" opacity="0.9"/>

    <!-- Near hills left -->
    <polygon points="0,542 100,500 190,460 280,480 380,510 460,535 0,542" fill="#265A15" opacity="0.85"/>
    <!-- Near hills right -->
    <polygon points="1440,542 1340,498 1250,455 1160,478 1060,508 980,535 1440,542" fill="#265A15" opacity="0.85"/>

    <!-- Center distant peaks -->
    <polygon points="560,542 590,502 630,475 660,495 700,542" fill="#142E0B"/>
    <polygon points="740,542 770,498 810,468 850,490 890,542" fill="#142E0B"/>
    <polygon points="640,542 670,510 700,490 730,510 760,542" fill="#183A0D" opacity="0.7"/>

    <!-- Rim light on mountain edges -->
    <polyline points="170,420 260,445 370,475" fill="none" stroke="#7FD700" stroke-width="1.5" opacity="0.4"/>
    <polyline points="1270,418 1180,440 1070,472" fill="none" stroke="#7FD700" stroke-width="1.5" opacity="0.4"/>
    <polyline points="630,475 660,495" fill="none" stroke="#9AE030" stroke-width="1" opacity="0.3"/>
    <polyline points="810,468 850,490" fill="none" stroke="#9AE030" stroke-width="1" opacity="0.3"/>

    <!-- ===== PALM TREES (improved) ===== -->
    <!-- Left palm -->
    <g transform="translate(330,542)">
      <path d="M0,0 C2,-15 3,-35 0,-55" stroke="#0A1A05" stroke-width="6" fill="none" stroke-linecap="round"/>
      <path d="M0,-55 C-8,-45 -30,-42 -45,-50" stroke="#0D2208" stroke-width="3" fill="none" stroke-linecap="round"/>
      <path d="M0,-55 C-6,-48 -25,-50 -40,-60" stroke="#0D2208" stroke-width="2.5" fill="none" stroke-linecap="round"/>
      <path d="M0,-55 C8,-45 30,-42 45,-50" stroke="#0D2208" stroke-width="3" fill="none" stroke-linecap="round"/>
      <path d="M0,-55 C6,-48 25,-50 40,-60" stroke="#0D2208" stroke-width="2.5" fill="none" stroke-linecap="round"/>
      <path d="M0,-55 C-3,-42 -10,-38 -20,-45" stroke="#0D2208" stroke-width="2" fill="none" stroke-linecap="round"/>
      <path d="M0,-55 C3,-42 10,-38 20,-45" stroke="#0D2208" stroke-width="2" fill="none" stroke-linecap="round"/>
      <path d="M0,-55 C0,-48 -5,-55 -15,-70" stroke="#0D2208" stroke-width="2" fill="none" stroke-linecap="round"/>
      <path d="M0,-55 C0,-48 5,-55 15,-70" stroke="#0D2208" stroke-width="2" fill="none" stroke-linecap="round"/>
    </g>

    <!-- Right palm -->
    <g transform="translate(1110,542)">
      <path d="M0,0 C-2,-18 -3,-38 0,-58" stroke="#0A1A05" stroke-width="6" fill="none" stroke-linecap="round"/>
      <path d="M0,-58 C-8,-48 -32,-44 -48,-52" stroke="#0D2208" stroke-width="3" fill="none" stroke-linecap="round"/>
      <path d="M0,-58 C-6,-50 -27,-52 -42,-62" stroke="#0D2208" stroke-width="2.5" fill="none" stroke-linecap="round"/>
      <path d="M0,-58 C8,-48 32,-44 48,-52" stroke="#0D2208" stroke-width="3" fill="none" stroke-linecap="round"/>
      <path d="M0,-58 C6,-50 27,-52 42,-62" stroke="#0D2208" stroke-width="2.5" fill="none" stroke-linecap="round"/>
      <path d="M0,-58 C-3,-45 -12,-40 -22,-48" stroke="#0D2208" stroke-width="2" fill="none" stroke-linecap="round"/>
      <path d="M0,-58 C3,-45 12,-40 22,-48" stroke="#0D2208" stroke-width="2" fill="none" stroke-linecap="round"/>
      <path d="M0,-58 C0,-50 -5,-58 -15,-73" stroke="#0D2208" stroke-width="2" fill="none" stroke-linecap="round"/>
      <path d="M0,-58 C0,-50 5,-58 15,-73" stroke="#0D2208" stroke-width="2" fill="none" stroke-linecap="round"/>
    </g>

    <!-- Small far palm silhouette -->
    <g transform="translate(480,530) scale(0.5)">
      <path d="M0,0 C1,-12 2,-30 0,-48" stroke="#0A1A05" stroke-width="5" fill="none" stroke-linecap="round"/>
      <path d="M0,-48 C-6,-40 -25,-38 -38,-44" stroke="#0D2208" stroke-width="2.5" fill="none" stroke-linecap="round"/>
      <path d="M0,-48 C6,-40 25,-38 38,-44" stroke="#0D2208" stroke-width="2.5" fill="none" stroke-linecap="round"/>
      <path d="M0,-48 C0,-40 -4,-48 -12,-60" stroke="#0D2208" stroke-width="2" fill="none" stroke-linecap="round"/>
      <path d="M0,-48 C0,-40 4,-48 12,-60" stroke="#0D2208" stroke-width="2" fill="none" stroke-linecap="round"/>
    </g>

    <g transform="translate(960,528) scale(0.5)">
      <path d="M0,0 C-1,-12 -2,-30 0,-48" stroke="#0A1A05" stroke-width="5" fill="none" stroke-linecap="round"/>
      <path d="M0,-48 C-6,-40 -25,-38 -38,-44" stroke="#0D2208" stroke-width="2.5" fill="none" stroke-linecap="round"/>
      <path d="M0,-48 C6,-40 25,-38 38,-44" stroke="#0D2208" stroke-width="2.5" fill="none" stroke-linecap="round"/>
      <path d="M0,-48 C0,-40 -4,-48 -12,-60" stroke="#0D2208" stroke-width="2" fill="none" stroke-linecap="round"/>
      <path d="M0,-48 C0,-40 4,-48 12,-60" stroke="#0D2208" stroke-width="2" fill="none" stroke-linecap="round"/>
    </g>
  </g>

  <!-- ===== HORIZON LINE ===== -->
  <line x1="0" y1="542" x2="1440" y2="542" stroke="#FFD700" stroke-width="1.5" opacity="0.45"/>

  <!-- ===== PERSPECTIVE GRID ===== -->
  <g clip-path="url(#horizonClip)" opacity="0.2">
    <line x1="720" y1="540" x2="-50" y2="900" stroke="#FFB300" stroke-width="1"/>
    <line x1="720" y1="540" x2="150" y2="900" stroke="#FFB300" stroke-width="0.8"/>
    <line x1="720" y1="540" x2="320" y2="900" stroke="#FFB300" stroke-width="0.8"/>
    <line x1="720" y1="540" x2="480" y2="900" stroke="#FFD700" stroke-width="0.7"/>
    <line x1="720" y1="540" x2="580" y2="900" stroke="#FFD700" stroke-width="0.6"/>
    <line x1="720" y1="540" x2="650" y2="900" stroke="#FFE600" stroke-width="0.6"/>
    <line x1="720" y1="540" x2="720" y2="900" stroke="#FFE600" stroke-width="1.2"/>
    <line x1="720" y1="540" x2="790" y2="900" stroke="#FFE600" stroke-width="0.6"/>
    <line x1="720" y1="540" x2="860" y2="900" stroke="#FFD700" stroke-width="0.6"/>
    <line x1="720" y1="540" x2="960" y2="900" stroke="#FFD700" stroke-width="0.7"/>
    <line x1="720" y1="540" x2="1120" y2="900" stroke="#FFB300" stroke-width="0.8"/>
    <line x1="720" y1="540" x2="1290" y2="900" stroke="#FFB300" stroke-width="0.8"/>
    <line x1="720" y1="540" x2="1490" y2="900" stroke="#FFB300" stroke-width="1"/>
    <!-- Horizontals with perspective spacing -->
    <line x1="0" y1="580" x2="1440" y2="580" stroke="#FF8C00" stroke-width="0.5" opacity="0.7"/>
    <line x1="0" y1="620" x2="1440" y2="620" stroke="#FF8C00" stroke-width="0.6" opacity="0.75"/>
    <line x1="0" y1="670" x2="1440" y2="670" stroke="#FF8C00" stroke-width="0.7" opacity="0.8"/>
    <line x1="0" y1="730" x2="1440" y2="730" stroke="#FF8C00" stroke-width="0.8" opacity="0.85"/>
    <line x1="0" y1="800" x2="1440" y2="800" stroke="#FF8C00" stroke-width="0.9" opacity="0.9"/>
    <line x1="0" y1="880" x2="1440" y2="880" stroke="#FF8C00" stroke-width="1" opacity="0.95"/>
  </g>

  <!-- Water/ground reflection of sun -->
  <g clip-path="url(#belowSun)" opacity="0.35">
    <ellipse cx="720" cy="650" rx="40" ry="100" fill="url(#waterReflect)"/>
    <ellipse cx="720" cy="620" rx="15" ry="60" fill="#FFD700" fill-opacity="0.2"/>
  </g>

  <!-- ===== BIRDS near horizon ===== -->
  <g opacity="0.5" fill="none" stroke="#1A3A10" stroke-width="1.5" stroke-linecap="round">
    <path d="M540,460 Q545,455 550,458 Q555,455 560,460"/>
    <path d="M570,470 Q574,466 578,469 Q582,466 586,470"/>
    <path d="M548,475 Q551,472 554,474 Q557,472 560,475"/>
    <path d="M860,455 Q865,450 870,453 Q875,450 880,455"/>
    <path d="M885,465 Q889,461 893,464 Q897,461 901,465"/>
    <path d="M870,472 Q873,469 876,471 Q879,469 882,472"/>
  </g>

  <!-- ===== FOREGROUND GROUND ===== -->
  <rect x="0" y="830" width="1440" height="70" fill="#C47A00" fill-opacity="0.35"/>
  <ellipse cx="720" cy="900" rx="900" ry="55" fill="#E8A000" fill-opacity="0.2"/>

  <!-- ===== AI NEURAL NETWORK (upper right) ===== -->
  <g opacity="0.7">
    <!-- Connection lines -->
    <line x1="1050" y1="80" x2="1140" y2="145" stroke="#FFB300" stroke-width="1.2" opacity="0.5"/>
    <line x1="1140" y1="145" x2="1230" y2="98" stroke="#7FD700" stroke-width="1.2" opacity="0.45"/>
    <line x1="1230" y1="98" x2="1320" y2="165" stroke="#FF6600" stroke-width="1.2" opacity="0.5"/>
    <line x1="1050" y1="80" x2="1230" y2="98" stroke="#FFD700" stroke-width="0.8" opacity="0.35"/>
    <line x1="1140" y1="145" x2="1320" y2="165" stroke="#7FD700" stroke-width="0.8" opacity="0.35"/>
    <line x1="1320" y1="165" x2="1400" y2="110" stroke="#FFB300" stroke-width="1.2" opacity="0.5"/>
    <line x1="1230" y1="98" x2="1400" y2="110" stroke="#FF6600" stroke-width="0.8" opacity="0.3"/>
    <line x1="1050" y1="80" x2="1320" y2="165" stroke="#FFD700" stroke-width="0.5" opacity="0.2"/>
    <line x1="1140" y1="145" x2="1400" y2="110" stroke="#7FD700" stroke-width="0.5" opacity="0.2"/>

    <!-- Animated pulse on lines -->
    <circle r="2" fill="#FFD700" opacity="0.8">
      <animateMotion dur="3s" repeatCount="indefinite" path="M1050,80 L1230,98"/>
    </circle>
    <circle r="2" fill="#7FD700" opacity="0.8">
      <animateMotion dur="2.5s" repeatCount="indefinite" path="M1140,145 L1320,165"/>
    </circle>

    <!-- Nodes -->
    <circle cx="1050" cy="80" r="6" fill="#FFB300" opacity="0.9" filter="url(#nodeGlow)"/>
    <circle cx="1050" cy="80" r="11" fill="none" stroke="#FFB300" stroke-width="1.2" opacity="0.3">
      <animate attributeName="r" values="11;14;11" dur="2.5s" repeatCount="indefinite"/>
      <animate attributeName="opacity" values="0.3;0.15;0.3" dur="2.5s" repeatCount="indefinite"/>
    </circle>

    <circle cx="1140" cy="145" r="5" fill="#7FD700" opacity="0.9" filter="url(#nodeGlow)"/>
    <circle cx="1140" cy="145" r="9" fill="none" stroke="#7FD700" stroke-width="1" opacity="0.3">
      <animate attributeName="r" values="9;12;9" dur="3s" repeatCount="indefinite"/>
    </circle>

    <circle cx="1230" cy="98" r="6.5" fill="#FFD700" opacity="0.85" filter="url(#nodeGlow)"/>
    <circle cx="1230" cy="98" r="12" fill="none" stroke="#FFD700" stroke-width="1.2" opacity="0.3">
      <animate attributeName="r" values="12;15;12" dur="2.8s" repeatCount="indefinite"/>
      <animate attributeName="opacity" values="0.3;0.12;0.3" dur="2.8s" repeatCount="indefinite"/>
    </circle>

    <circle cx="1320" cy="165" r="5" fill="#FF6600" opacity="0.9" filter="url(#nodeGlow)"/>
    <circle cx="1320" cy="165" r="9" fill="none" stroke="#FF6600" stroke-width="1" opacity="0.3"/>

    <circle cx="1400" cy="110" r="5.5" fill="#FFB300" opacity="0.85" filter="url(#nodeGlow)"/>
    <circle cx="1400" cy="110" r="10" fill="none" stroke="#FFB300" stroke-width="1" opacity="0.3">
      <animate attributeName="r" values="10;13;10" dur="3.2s" repeatCount="indefinite"/>
    </circle>
  </g>

  <!-- ===== AI NEURAL NETWORK (upper left) ===== -->
  <g opacity="0.6">
    <line x1="65" y1="190" x2="150" y2="250" stroke="#7FD700" stroke-width="1.2" opacity="0.5"/>
    <line x1="150" y1="250" x2="240" y2="198" stroke="#FFB300" stroke-width="1.2" opacity="0.45"/>
    <line x1="65" y1="190" x2="240" y2="198" stroke="#FFD700" stroke-width="0.8" opacity="0.3"/>
    <line x1="240" y1="198" x2="330" y2="260" stroke="#7FD700" stroke-width="1.2" opacity="0.45"/>
    <line x1="150" y1="250" x2="330" y2="260" stroke="#FF6600" stroke-width="0.8" opacity="0.28"/>
    <line x1="65" y1="190" x2="330" y2="260" stroke="#FFB300" stroke-width="0.5" opacity="0.18"/>

    <circle r="1.8" fill="#FFB300" opacity="0.7">
      <animateMotion dur="3.5s" repeatCount="indefinite" path="M65,190 L240,198"/>
    </circle>

    <circle cx="65" cy="190" r="5" fill="#7FD700" opacity="0.85" filter="url(#nodeGlow)"/>
    <circle cx="65" cy="190" r="9" fill="none" stroke="#7FD700" stroke-width="1" opacity="0.28">
      <animate attributeName="r" values="9;12;9" dur="3.1s" repeatCount="indefinite"/>
    </circle>

    <circle cx="150" cy="250" r="4.5" fill="#FFB300" opacity="0.85" filter="url(#nodeGlow)"/>
    <circle cx="150" cy="250" r="8" fill="none" stroke="#FFB300" stroke-width="1" opacity="0.25"/>

    <circle cx="240" cy="198" r="6" fill="#FFD700" opacity="0.8" filter="url(#nodeGlow)"/>
    <circle cx="240" cy="198" r="10" fill="none" stroke="#FFD700" stroke-width="1" opacity="0.25">
      <animate attributeName="r" values="10;13;10" dur="2.7s" repeatCount="indefinite"/>
    </circle>

    <circle cx="330" cy="260" r="4.5" fill="#7FD700" opacity="0.8" filter="url(#nodeGlow)"/>
    <circle cx="330" cy="260" r="8" fill="none" stroke="#7FD700" stroke-width="1" opacity="0.25"/>
  </g>

  <!-- ===== FLIGHT PATH ===== -->
  <!-- Glow behind trail -->
  <path d="M 210 490 Q 720 210 1230 480" fill="none" stroke="#FFD700" stroke-width="5" opacity="0.1" filter="url(#softBlur)"/>
  <!-- Dashed trail -->
  <path d="M 210 490 Q 720 210 1230 480" fill="none" stroke="url(#trailGrad)" stroke-width="1.8" stroke-dasharray="12 8" opacity="0.5"/>
  <!-- Thin highlight -->
  <path d="M 210 490 Q 720 210 1230 480" fill="none" stroke="white" stroke-width="0.6" stroke-dasharray="3 30" opacity="0.2"/>

  <!-- ===== AIRPLANE (improved shape) ===== -->
  <g filter="url(#planeGlow)" transform="translate(670,280) rotate(-20)">
    <!-- Fuselage -->
    <path d="M-12,0 L25,-1 L30,0 L25,1 L-12,0 Z" fill="white" opacity="0.95"/>
    <!-- Wings -->
    <path d="M5,-1 L12,-12 L18,-11 L10,0 Z" fill="white" opacity="0.9"/>
    <path d="M5,1 L12,12 L18,11 L10,0 Z" fill="white" opacity="0.9"/>
    <!-- Tail -->
    <path d="M-10,0 L-14,-6 L-8,-5 Z" fill="white" opacity="0.8"/>
    <path d="M-10,0 L-14,6 L-8,5 Z" fill="white" opacity="0.8"/>
    <!-- Contrail -->
    <line x1="-14" y1="0" x2="-55" y2="4" stroke="#FFD700" stroke-width="2.5" opacity="0.5" stroke-linecap="round"/>
    <line x1="-55" y1="4" x2="-95" y2="8" stroke="#FFB300" stroke-width="1.5" opacity="0.25" stroke-linecap="round"/>
    <line x1="-95" y1="8" x2="-130" y2="12" stroke="#FF8C00" stroke-width="0.8" opacity="0.12" stroke-linecap="round"/>
  </g>

  <!-- ===== DESTINATION PINS ===== -->
  <!-- Origin -->
  <g>
    <circle cx="210" cy="490" r="4.5" fill="#FF6600" opacity="0.9"/>
    <circle cx="210" cy="490" r="8" fill="none" stroke="#FF6600" stroke-width="1.5" opacity="0.5">
      <animate attributeName="r" values="8;13;8" dur="2s" repeatCount="indefinite"/>
      <animate attributeName="opacity" values="0.5;0.15;0.5" dur="2s" repeatCount="indefinite"/>
    </circle>
    <circle cx="210" cy="490" r="13" fill="none" stroke="#FF6600" stroke-width="0.8" opacity="0.2">
      <animate attributeName="r" values="13;19;13" dur="2s" repeatCount="indefinite"/>
      <animate attributeName="opacity" values="0.2;0.05;0.2" dur="2s" repeatCount="indefinite"/>
    </circle>
  </g>
  <!-- Destination -->
  <g>
    <circle cx="1230" cy="480" r="4.5" fill="#FFD700" opacity="0.9"/>
    <circle cx="1230" cy="480" r="8" fill="none" stroke="#FFD700" stroke-width="1.5" opacity="0.5">
      <animate attributeName="r" values="8;13;8" dur="2s" repeatCount="indefinite"/>
      <animate attributeName="opacity" values="0.5;0.15;0.5" dur="2s" repeatCount="indefinite"/>
    </circle>
    <circle cx="1230" cy="480" r="13" fill="none" stroke="#FFD700" stroke-width="0.8" opacity="0.2">
      <animate attributeName="r" values="13;19;13" dur="2s" repeatCount="indefinite"/>
      <animate attributeName="opacity" values="0.2;0.05;0.2" dur="2s" repeatCount="indefinite"/>
    </circle>
  </g>

  <!-- ===== OVERLAYS ===== -->
  <!-- Film grain -->
  <rect width="1440" height="900" fill="white" opacity="0.018" filter="url(#noise)"/>

  <!-- Vignette -->
  <rect width="1440" height="900" fill="url(#vignette)"/>
</svg>